# xmcd
#
# Track frame offsets: 
#        150
#        15872
#        41549
#        61349
#        74181
#        93057
#        104920
#        118127
#        133342
#        148279
#        165329
#        179130
#        197451
#
# Disc length: 2810 seconds
#
# Revision: 4
# Processed by: cddbd v1.5.2PL0 Copyright (c) Steve Scherf et al.
# Submitted via: ExactAudioCopy v0.99pb5
#
DISCID=c30af80d
DTITLE=Линда - Танцы тибетских лам
DYEAR=2004
DGENRE=Alternative
TTITLE0=Ожог
TTITLE1=Нирвана
TTITLE2=Можно купаться в грязной воде
TTITLE3=Ляп, ляп, ляп
TTITLE4=Пусть будет тихо
TTITLE5=Распахни меня
TTITLE6=Мало огня
TTITLE7=Электрика I
TTITLE8=Электрика II
TTITLE9=Шаманка
TTITLE10=Загляни за солнце
TTITLE11=Поиграй со мной
TTITLE12=Подарок
EXTD=YEAR: 1995
EXTT0=
EXTT1=
EXTT2=
EXTT3=
EXTT4=
EXTT5=
EXTT6=
EXTT7=
EXTT8=
EXTT9=
EXTT10=
EXTT11=
EXTT12=
PLAYORDER=
